<svg width="155" height="81" viewBox="0 0 155 81" fill="none" xmlns="http://www.w3.org/2000/svg">
<path d="M4.63877 66.5761L3.17851 70.0109H0L6.50764 54.9717H9.2782L15.8068 70.0109H12.5634L11.1248 66.5761H4.63877ZM5.58368 64.1651H10.1589L7.88211 58.491L5.58368 64.1651Z" fill="#905BFF"/>
<path d="M20.8758 67.3872H28.2209V70.0116H17.8688V55.0361H20.8758V67.3872Z" fill="#905BFF"/>
<path d="M38.1435 63.7395V61.3928H44.7376V62.0972C44.7376 63.4624 44.5549 64.6604 44.1901 65.692C43.8248 66.7228 43.3199 67.5801 42.6755 68.2623C42.0312 68.9453 41.2585 69.461 40.3562 69.809C39.4545 70.1569 38.4585 70.3319 37.3708 70.3319C36.2681 70.3319 35.2407 70.1329 34.2886 69.7348C33.3364 69.3368 32.5094 68.7892 31.8081 68.0919C31.1061 67.3954 30.5548 66.5707 30.1547 65.6172C29.7539 64.665 29.5535 63.6335 29.5535 62.5239C29.5535 61.4293 29.7611 60.4088 30.1763 59.4631C30.5914 58.5174 31.1644 57.6927 31.8945 56.9883C32.6247 56.284 33.4871 55.7331 34.483 55.335C35.4777 54.937 36.5477 54.7373 37.6936 54.7373C38.4807 54.7373 39.2685 54.8264 40.0562 55.004C40.8433 55.1822 41.5597 55.4625 42.2041 55.8469V59.0468C41.6593 58.5493 41.0228 58.1473 40.2926 57.841C39.5625 57.5353 38.7604 57.3825 37.8868 57.3825C37.1567 57.3825 36.4698 57.5178 35.8254 57.7877C35.1811 58.0582 34.6225 58.4277 34.1497 58.8973C33.677 59.3668 33.3011 59.9145 33.0221 60.5395C32.7425 61.1658 32.603 61.8338 32.603 62.5447C32.603 63.2848 32.732 63.971 32.99 64.6032C33.2474 65.236 33.5984 65.7837 34.0423 66.2461C34.4863 66.7085 35.0089 67.0669 35.61 67.3232C36.2118 67.5788 36.8561 67.7069 37.543 67.7069C38.116 67.7069 38.6634 67.6217 39.186 67.4513C39.7085 67.2809 40.1702 67.0246 40.5709 66.6838C40.9717 66.3424 41.2939 65.9268 41.5375 65.4357C41.7811 64.9453 41.9029 64.3795 41.9029 63.7395H38.1435Z" fill="#905BFF"/>
<path d="M62.0799 65.531C61.672 66.4838 61.1141 67.3125 60.4049 68.0168C59.6957 68.7206 58.8543 69.2786 57.8805 69.6916C56.9068 70.104 55.848 70.3101 54.702 70.3101C53.5567 70.3101 52.4972 70.1072 51.5235 69.702C50.5498 69.2968 49.7083 68.742 48.9998 68.0377C48.2913 67.3333 47.736 66.5086 47.3353 65.5629C46.9345 64.6172 46.7341 63.611 46.7341 62.5444C46.7341 61.4634 46.9345 60.4475 47.3353 59.494C47.736 58.5418 48.2946 57.7132 49.011 57.0088C49.7267 56.3044 50.5714 55.7503 51.5451 55.3445C52.5188 54.9393 53.5862 54.7363 54.7452 54.7363C55.8905 54.7363 56.9468 54.9393 57.9126 55.3445C58.8798 55.7496 59.7167 56.3044 60.4252 57.0088C61.1344 57.7132 61.689 58.5347 62.0897 59.4725C62.4912 60.4111 62.6915 61.414 62.6915 62.4806C62.6922 63.5609 62.4879 64.5782 62.0799 65.531ZM59.2452 60.5711C59.0088 59.9525 58.6722 59.4081 58.2355 58.9392C57.798 58.4696 57.2801 58.0995 56.6783 57.8296C56.0765 57.5597 55.425 57.4244 54.7236 57.4244C53.9935 57.4244 53.3276 57.5558 52.7258 57.8186C52.1246 58.082 51.6086 58.441 51.1797 58.8956C50.7502 59.3509 50.4136 59.8875 50.17 60.5067C49.9264 61.1252 49.8053 61.7828 49.8053 62.48C49.8053 63.1766 49.9264 63.838 50.17 64.4637C50.4136 65.0894 50.7502 65.637 51.1797 66.1066C51.6093 66.5755 52.1246 66.9456 52.7258 67.2155C53.3269 67.4861 53.9929 67.6207 54.7236 67.6207C55.4394 67.6207 56.0981 67.4861 56.6999 67.2155C57.3004 66.9456 57.8157 66.5795 58.2459 66.117C58.6755 65.6552 59.0088 65.1187 59.2452 64.5066C59.4803 63.8953 59.5995 63.241 59.5995 62.5437C59.5995 61.8478 59.4809 61.1896 59.2452 60.5711Z" fill="#905BFF"/>
<path d="M77.1565 67.6757C77.4643 67.6256 77.7433 67.5404 77.9947 67.4195C78.2449 67.2991 78.4524 67.1313 78.6175 66.9187C78.7818 66.7053 78.865 66.4283 78.865 66.0861C78.865 65.6166 78.6679 65.2296 78.2743 64.9232C77.8808 64.6175 77.3903 64.3372 76.8036 64.0803C76.2162 63.8247 75.5758 63.5684 74.881 63.3128C74.1863 63.0572 73.5458 62.7437 72.9591 62.3743C72.3717 62.0049 71.8813 61.5425 71.4884 60.9877C71.0942 60.4329 70.8977 59.7363 70.8977 58.8973C70.8977 58.215 71.0444 57.6173 71.3378 57.1054C71.6311 56.5929 72.0175 56.1636 72.4975 55.8144C72.9775 55.4664 73.5354 55.203 74.1732 55.0248C74.8097 54.8472 75.4651 54.7588 76.1383 54.7588C77.1402 54.7588 78.0497 54.8902 78.8663 55.1529C79.6822 55.4163 80.4195 55.8176 81.0783 56.3588V59.3454C80.7345 59.0039 80.3698 58.7022 79.9834 58.4388C79.5964 58.176 79.1957 57.9555 78.7805 57.7773C78.3647 57.5997 77.9463 57.4645 77.5239 57.3721C77.1009 57.2797 76.6969 57.2329 76.3099 57.2329C75.5653 57.2329 74.9819 57.3721 74.5595 57.6492C74.1371 57.9262 73.9263 58.2859 73.9263 58.7262C73.9263 59.1815 74.1306 59.5509 74.5386 59.8358C74.9465 60.1207 75.4514 60.3834 76.0525 60.6247C76.6543 60.8667 77.3058 61.1158 78.0072 61.3714C78.7091 61.627 79.3535 61.9581 79.9402 62.3633C80.5269 62.7685 81.0069 63.2732 81.3795 63.8774C81.7514 64.4823 81.9165 65.2465 81.8732 66.1707C81.8307 66.8679 81.6512 67.4721 81.3363 67.984C81.0213 68.4959 80.6134 68.9225 80.1124 69.264C79.6115 69.6055 79.0313 69.8578 78.3732 70.0211C77.7144 70.1843 77.0131 70.2663 76.2686 70.2663C75.1947 70.2663 74.1496 70.0991 73.1327 69.7648C72.1157 69.4311 71.1996 68.8874 70.3837 68.1329V65.2953C70.8277 65.6939 71.2893 66.0458 71.7693 66.3515C72.2493 66.6572 72.747 66.9135 73.2623 67.1196C73.7777 67.3258 74.2897 67.4819 74.7979 67.5886C75.306 67.6952 75.8037 67.7486 76.2909 67.7486C76.5587 67.7499 76.8488 67.7251 77.1565 67.6757Z" fill="#0BFFB7"/>
<path d="M90.5261 70.0116H87.5414V57.6605H83.031V55.0361H95.0372V57.6605H90.5268V70.0116H90.5261Z" fill="#0BFFB7"/>
<path d="M111.392 65.531C110.983 66.4838 110.426 67.3125 109.716 68.0168C109.007 68.7206 108.166 69.2786 107.193 69.6916C106.219 70.104 105.159 70.3101 104.014 70.3101C102.868 70.3101 101.809 70.1072 100.836 69.702C99.8613 69.2968 99.0205 68.742 98.3119 68.0377C97.6028 67.3333 97.0481 66.5086 96.6474 65.5629C96.2466 64.6172 96.0462 63.611 96.0462 62.5444C96.0462 61.4634 96.2466 60.4475 96.6474 59.494C97.0481 58.5418 97.6067 57.7132 98.3231 57.0088C99.0388 56.3044 99.8835 55.7503 100.857 55.3445C101.831 54.9393 102.898 54.7363 104.057 54.7363C105.202 54.7363 106.258 54.9393 107.225 55.3445C108.191 55.7496 109.029 56.3044 109.737 57.0088C110.446 57.7132 111.001 58.5347 111.402 59.4725C111.803 60.4111 112.004 61.414 112.004 62.4806C112.004 63.5609 111.8 64.5782 111.392 65.531ZM108.557 60.5711C108.32 59.9525 107.984 59.4081 107.547 58.9392C107.11 58.4696 106.592 58.0995 105.99 57.8296C105.389 57.5597 104.736 57.4244 104.035 57.4244C103.305 57.4244 102.639 57.5558 102.038 57.8186C101.436 58.082 100.921 58.441 100.492 58.8956C100.062 59.3509 99.7257 59.8875 99.4821 60.5067C99.2385 61.1252 99.1174 61.7828 99.1174 62.48C99.1174 63.1766 99.2385 63.838 99.4821 64.4637C99.7257 65.0894 100.062 65.637 100.492 66.1066C100.921 66.5755 101.437 66.9456 102.038 67.2155C102.639 67.4861 103.305 67.6207 104.035 67.6207C104.751 67.6207 105.41 67.4861 106.011 67.2155C106.612 66.9456 107.128 66.5795 107.557 66.117C107.987 65.6552 108.32 65.1187 108.556 64.5066C108.792 63.8953 108.91 63.241 108.91 62.5437C108.911 61.8478 108.792 61.1896 108.557 60.5711Z" fill="#0BFFB7"/>
<path d="M126.264 68.6028C125.577 69.1433 124.836 69.5622 124.041 69.8614C123.246 70.1599 122.348 70.3095 121.346 70.3095C120.258 70.3095 119.241 70.1137 118.297 69.7228C117.352 69.3319 116.531 68.7875 115.837 68.091C115.142 67.3944 114.595 66.5729 114.194 65.6273C113.793 64.6816 113.593 63.654 113.593 62.5444C113.593 61.4354 113.789 60.4078 114.184 59.4621C114.577 58.5164 115.125 57.6917 115.827 56.9874C116.528 56.283 117.363 55.7321 118.329 55.334C119.296 54.936 120.344 54.7363 121.476 54.7363C122.449 54.7363 123.308 54.8684 124.053 55.1311C124.797 55.3945 125.47 55.7464 126.072 56.1867V59.3223C125.556 58.7675 124.937 58.3129 124.214 57.9571C123.491 57.602 122.621 57.4238 121.604 57.4238C120.859 57.4238 120.182 57.5591 119.574 57.829C118.965 58.0989 118.446 58.4618 118.017 58.9164C117.587 59.3717 117.258 59.9083 117.029 60.5275C116.8 61.146 116.685 61.8042 116.685 62.5008C116.685 63.2117 116.8 63.8764 117.029 64.4956C117.258 65.1141 117.587 65.6552 118.017 66.117C118.446 66.5794 118.965 66.9424 119.574 67.2051C120.182 67.4679 120.859 67.5993 121.604 67.5993C122.076 67.5993 122.519 67.5459 122.935 67.4393C123.35 67.3326 123.748 67.1869 124.127 67.0022C124.506 66.8175 124.872 66.597 125.223 66.3407C125.573 66.0851 125.921 65.8009 126.264 65.4874V68.6028Z" fill="#0BFFB7"/>
<path d="M131.483 61.2013L136.938 55.0361H140.568L134.468 61.7561L140.954 70.0116H137.303L131.482 62.5664V70.0116H128.475V55.0361H131.482V61.2013H131.483Z" fill="#0BFFB7"/>
<path d="M145.937 67.4509H154.764V70.0109H141.856V67.7287L151.006 57.5746H142.285V55.0361H155V57.3184L145.937 67.4509Z" fill="#0BFFB7"/>
<path d="M18.7253 76.9189H20.0337C21.2634 76.9189 22.1324 77.715 22.1324 78.8409C22.1324 79.9667 21.2634 80.768 20.0337 80.768H18.7253V76.9189ZM20.0337 80.3706C21.0035 80.3706 21.6865 79.7378 21.6865 78.8409C21.6865 77.9498 21.0035 77.3163 20.0337 77.3163H19.1647V80.3706H20.0337Z" fill="white"/>
<path d="M29.9215 79.8939H27.7612L27.3723 80.768H26.8929L28.602 76.9189H29.0814L30.7905 80.768H30.3111L29.9215 79.8939ZM29.7408 79.4796L28.8437 77.4568L27.9413 79.4796H29.7408Z" fill="white"/>
<path d="M35.9334 76.9189H36.3728V80.768H35.9334V76.9189Z" fill="white"/>
<path d="M44.2739 80.3531V80.768H41.7188V76.9189H42.1582V80.3537H44.2739V80.3531Z" fill="white"/>
<path d="M50.646 79.1999L49.0836 76.9189H49.631L50.8772 78.7849L52.1351 76.9189H52.6648L51.1083 79.1999V80.768H50.6454V79.1999H50.646Z" fill="white"/>
<path d="M63.6966 80.2197L63.973 79.8775C64.3004 80.2027 64.7005 80.4323 65.242 80.4323C65.8399 80.4323 66.1444 80.1071 66.1444 79.7598C66.1444 79.3514 65.7777 79.1881 65.1006 79.032C64.322 78.8525 63.8315 78.6119 63.8315 77.9452C63.8315 77.3286 64.3848 76.8467 65.1287 76.8467C65.7043 76.8467 66.1332 77.0704 66.4881 77.3956L66.2177 77.7377C65.8968 77.4288 65.5131 77.2441 65.1071 77.2441C64.6278 77.2441 64.2775 77.5582 64.2775 77.9107C64.2775 78.3088 64.6612 78.4486 65.3212 78.606C66.0599 78.779 66.5903 79.0424 66.5903 79.7208C66.5903 80.3315 66.1273 80.8297 65.225 80.8297C64.5872 80.8304 64.0856 80.6001 63.6966 80.2197Z" fill="white"/>
<path d="M72.9683 77.3339H71.6646V76.9189H74.7114V77.3339H73.4077V80.7686H72.9683V77.3339Z" fill="white"/>
<path d="M79.5329 78.847C79.5329 77.7654 80.4464 76.8574 81.5183 76.8574C82.5962 76.8574 83.4985 77.7647 83.4985 78.847C83.4985 79.928 82.5962 80.8411 81.5183 80.8411C80.4464 80.8411 79.5329 79.9286 79.5329 78.847ZM83.0526 78.847C83.0526 77.9898 82.3526 77.2607 81.5183 77.2607C80.6834 77.2607 79.9782 77.9898 79.9782 78.847C79.9782 79.7094 80.6828 80.4379 81.5183 80.4379C82.3526 80.4379 83.0526 79.7094 83.0526 78.847Z" fill="white"/>
<path d="M88.6028 78.847C88.6028 77.7654 89.5163 76.8574 90.5883 76.8574C91.1246 76.8574 91.6203 77.0812 91.9811 77.446L91.6818 77.7485C91.4002 77.4512 91.0106 77.2607 90.5876 77.2607C89.7527 77.2607 89.0474 77.9898 89.0474 78.847C89.0474 79.7094 89.752 80.4379 90.5876 80.4379C91.0106 80.4379 91.3996 80.2467 91.6818 79.9501L91.9811 80.2532C91.6203 80.6115 91.1239 80.8411 90.5883 80.8411C89.5163 80.8411 88.6028 79.9286 88.6028 78.847Z" fill="white"/>
<path d="M97.1811 76.9189H97.6211V79.0477L99.5843 76.9189H100.165L98.5353 78.6783L100.273 80.768H99.7028L98.2308 78.9749L97.6218 79.6136V80.768H97.1818V76.9189H97.1811Z" fill="white"/>
<path d="M112.611 77.3339H111.308V76.9189H114.354V77.3339H113.051V80.7686H112.611V77.3339Z" fill="white"/>
<path d="M119.571 76.9189H120.01V80.768H119.571V76.9189Z" fill="white"/>
<path d="M125.418 76.9189H126.992C127.793 76.9189 128.42 77.4289 128.42 78.1515C128.42 78.8747 127.793 79.3846 126.992 79.3846H125.858V80.768H125.418V76.9189ZM126.913 78.9697C127.545 78.9697 127.974 78.6672 127.974 78.1515C127.974 77.6363 127.545 77.3339 126.913 77.3339H125.858V78.9703H126.913V78.9697Z" fill="white"/>
<path d="M133.382 80.2197L133.658 79.8775C133.985 80.2027 134.386 80.4323 134.927 80.4323C135.525 80.4323 135.829 80.1071 135.829 79.7598C135.829 79.3514 135.463 79.1881 134.786 79.032C134.007 78.8525 133.517 78.6119 133.517 77.9452C133.517 77.3286 134.07 76.8467 134.814 76.8467C135.389 76.8467 135.818 77.0704 136.173 77.3956L135.903 77.7377C135.582 77.4288 135.198 77.2441 134.792 77.2441C134.313 77.2441 133.963 77.5582 133.963 77.9107C133.963 78.3088 134.346 78.4486 135.006 78.606C135.745 78.779 136.275 79.0424 136.275 79.7208C136.275 80.3315 135.812 80.8297 134.91 80.8297C134.273 80.8304 133.771 80.6001 133.382 80.2197Z" fill="white"/>
<path opacity="0.5" d="M72.377 28.3934L73.8163 26.9007C74.1516 26.5534 74.6761 26.0207 75.3525 25.3709C74.3441 24.4903 73.3285 23.6663 72.3259 22.915L70.1814 26.6061C70.8827 27.1446 71.6187 27.7443 72.377 28.3934Z" fill="#0BFFB7"/>
<path d="M101.927 36.4131C103.072 34.5751 103.674 32.473 103.674 30.3C103.674 23.8708 98.4076 18.6403 91.9347 18.6403C91.4913 18.6403 91.0572 18.6858 90.6034 18.7795C90.1778 18.8575 89.7331 18.9746 89.2748 19.1288C87.8433 19.5944 86.2069 20.4302 84.4088 21.6139C84.0205 21.8682 83.64 22.129 83.2668 22.3964C81.8969 23.3707 80.4484 24.5388 78.9587 25.8669C78.5907 26.1986 78.241 26.5186 77.9181 26.8171C77.0125 27.6652 76.2929 28.3885 75.8489 28.8451L73.9735 30.7846C73.5996 31.1273 73.2506 31.4454 72.8871 31.7641C70.9849 33.4291 66.2531 37.3425 63.3981 37.7211C62.7367 37.8329 62.1199 37.7328 61.596 37.6307C59.4685 37.2534 57.6003 35.9604 56.4766 34.0847C56.1453 33.5201 55.8886 32.9198 55.7124 32.2967C55.531 31.6554 55.4387 30.9836 55.4387 30.2994C55.4387 27.0161 57.6271 24.0998 60.7775 23.1567L63.3955 18.6559C63.2442 18.6449 63.0936 18.6396 62.9449 18.6396C56.4714 18.6396 51.2053 23.8702 51.2053 30.2994C51.2053 32.8873 52.0454 35.3367 53.6334 37.3835C53.9457 37.7874 54.2469 38.1315 54.554 38.4372C55.8008 39.7152 57.3528 40.7038 59.0461 41.2996C59.4816 41.455 59.9203 41.578 60.3499 41.6658C61.1992 41.8615 62.0694 41.9597 62.9449 41.9597C67.1934 41.9597 72.8976 37.4277 75.9196 34.726C76.2903 34.3995 76.636 34.0827 76.9483 33.7868C77.6765 33.1104 78.3765 32.4268 79.0307 31.7543L80.9061 29.8142C81.2787 29.4721 81.6284 29.154 81.9911 28.8353C83.0906 27.8701 84.1979 26.9719 85.281 26.1654C85.6673 25.8734 86.0648 25.5866 86.4551 25.3206C88.8282 23.6776 90.6715 22.8438 91.934 22.8438H92.0086C92.6877 22.8516 93.3478 22.9453 93.9705 23.1235C97.1903 24.0237 99.4402 26.9745 99.4402 30.2994C99.4402 30.8262 99.3865 31.3491 99.2798 31.8558L101.927 36.4131Z" fill="#0BFFB7"/>
<path opacity="0.5" d="M82.5025 32.2051L81.0639 33.6925C80.5571 34.2194 80.0515 34.7241 79.529 35.2268C82.5471 37.8545 87.9081 41.9591 91.9353 41.9591C92.5213 41.9591 93.1041 41.9162 93.6738 41.831L91.2674 37.6866C88.5636 37.1592 84.4245 33.848 82.5025 32.2051Z" fill="#0BFFB7"/>
<path d="M62.1186 34.8777L77.5004 8.40836L83.5477 18.8161C84.8599 17.9985 86.1205 17.3449 87.3038 16.8675L77.5004 0L58.7253 32.306C59.3749 33.6517 60.6478 34.6156 62.1186 34.8777Z" fill="#905BFF"/>
<path d="M53.4951 41.292L50.0278 47.2607H54.9174L57.0822 43.5385C55.7798 42.9707 54.5762 42.2169 53.4951 41.292Z" fill="#905BFF"/>
<path d="M91.9347 25.6465C91.6 25.6465 90.5078 26.0081 88.4988 27.3375L100.084 47.2619H104.973L92.4251 25.6732C92.2634 25.6556 92.0997 25.6465 91.9347 25.6465Z" fill="#905BFF"/>
</svg>
