<svg width="20" height="18" viewBox="0 0 20 18" fill="none" xmlns="http://www.w3.org/2000/svg">
<path d="M17.2164 5.72667H18.1818C18.664 5.72667 19.1265 5.89908 19.4675 6.20598C19.8084 6.51287 20 6.9291 20 7.36312V10.636C20 11.07 19.8084 11.4862 19.4675 11.7931C19.1265 12.1 18.664 12.2724 18.1818 12.2724H17.2164C16.9947 13.8543 16.1393 15.309 14.8107 16.3636C13.482 17.4181 11.7715 18 10 18V16.3636C11.4466 16.3636 12.834 15.8463 13.8569 14.9256C14.8799 14.005 15.4545 12.7563 15.4545 11.4542V6.54489C15.4545 5.24286 14.8799 3.99415 13.8569 3.07347C12.834 2.15279 11.4466 1.63556 10 1.63556C8.55336 1.63556 7.16598 2.15279 6.14305 3.07347C5.12013 3.99415 4.54545 5.24286 4.54545 6.54489V12.2724H1.81818C1.33597 12.2724 0.873508 12.1 0.532533 11.7931C0.191558 11.4862 0 11.07 0 10.636V7.36312C0 6.9291 0.191558 6.51287 0.532533 6.20598C0.873508 5.89908 1.33597 5.72667 1.81818 5.72667H2.78364C3.00548 4.14496 3.86098 2.69047 5.18961 1.63612C6.51824 0.581758 8.22868 0 10 0C11.7713 0 13.4818 0.581758 14.8104 1.63612C16.139 2.69047 16.9945 4.14496 17.2164 5.72667ZM1.81818 7.36312V10.636H2.72727V7.36312H1.81818ZM17.2727 7.36312V10.636H18.1818V7.36312H17.2727ZM6.14545 12.0965L7.10909 10.7088C7.97552 11.1973 8.97761 11.4557 10 11.4542C11.0224 11.4557 12.0245 11.1973 12.8909 10.7088L13.8545 12.0965C12.6993 12.748 11.3632 13.0926 10 13.0907C8.63678 13.0926 7.30067 12.748 6.14545 12.0965Z" fill="#F0F0F0"/>
</svg>
