<svg width="155" height="81" viewBox="0 0 155 81" fill="none" xmlns="http://www.w3.org/2000/svg">
<path d="M4.63877 66.5761L3.17851 70.0109H0L6.50764 54.9717H9.2782L15.8068 70.0109H12.5634L11.1248 66.5761H4.63877ZM5.58368 64.1651H10.1589L7.88211 58.491L5.58368 64.1651Z" fill="#905BFF"/>
<path d="M20.8758 67.3868H28.2209V70.0112H17.8688V55.0358H20.8758V67.3868Z" fill="#905BFF"/>
<path d="M38.1435 63.7398V61.3932H44.7376V62.0976C44.7376 63.4627 44.5549 64.6608 44.1901 65.6923C43.8248 66.7232 43.3199 67.5804 42.6755 68.2627C42.0312 68.9456 41.2585 69.4614 40.3562 69.8093C39.4545 70.1573 38.4585 70.3322 37.3708 70.3322C36.2681 70.3322 35.2407 70.1332 34.2886 69.7352C33.3364 69.3371 32.5094 68.7895 31.8081 68.0923C31.1061 67.3957 30.5548 66.571 30.1547 65.6175C29.7539 64.6653 29.5535 63.6338 29.5535 62.5242C29.5535 61.4296 29.7611 60.4091 30.1763 59.4634C30.5914 58.5178 31.1644 57.693 31.8945 56.9887C32.6247 56.2843 33.4871 55.7334 34.483 55.3354C35.4777 54.9373 36.5477 54.7376 37.6936 54.7376C38.4807 54.7376 39.2685 54.8267 40.0562 55.0043C40.8433 55.1825 41.5597 55.4628 42.2041 55.8472V59.0472C41.6593 58.5496 41.0228 58.1477 40.2926 57.8413C39.5625 57.5357 38.7603 57.3828 37.8868 57.3828C37.1567 57.3828 36.4698 57.5181 35.8254 57.788C35.1811 58.0586 34.6225 58.428 34.1497 58.8976C33.677 59.3672 33.3011 59.9148 33.0221 60.5398C32.7425 61.1662 32.603 61.8341 32.603 62.545C32.603 63.2852 32.732 63.9713 32.99 64.6035C33.2474 65.2364 33.5984 65.784 34.0423 66.2464C34.4863 66.7089 35.0089 67.0672 35.61 67.3235C36.2118 67.5791 36.8561 67.7072 37.543 67.7072C38.116 67.7072 38.6634 67.622 39.186 67.4516C39.7085 67.2812 40.1702 67.025 40.5709 66.6842C40.9717 66.3427 41.2939 65.9271 41.5375 65.436C41.7811 64.9456 41.9028 64.3798 41.9028 63.7398H38.1435Z" fill="#905BFF"/>
<path d="M62.0799 65.5311C61.672 66.4839 61.1141 67.3125 60.4049 68.0169C59.6957 68.7206 58.8543 69.2787 57.8805 69.6917C56.9068 70.104 55.848 70.3102 54.702 70.3102C53.5567 70.3102 52.4972 70.1073 51.5235 69.7021C50.5498 69.2969 49.7083 68.7421 48.9998 68.0377C48.2913 67.3333 47.736 66.5086 47.3353 65.5629C46.9345 64.6173 46.7341 63.6111 46.7341 62.5444C46.7341 61.4635 46.9345 60.4475 47.3353 59.4941C47.736 58.5419 48.2946 57.7133 49.011 57.0089C49.7267 56.3045 50.5714 55.7504 51.5451 55.3445C52.5188 54.9393 53.5862 54.7364 54.7452 54.7364C55.8905 54.7364 56.9468 54.9393 57.9126 55.3445C58.8798 55.7497 59.7167 56.3045 60.4252 57.0089C61.1344 57.7133 61.689 58.5347 62.0897 59.4726C62.4912 60.4111 62.6915 61.414 62.6915 62.4807C62.6922 63.561 62.4879 64.5782 62.0799 65.5311ZM59.2452 60.5711C59.0088 59.9526 58.6722 59.4082 58.2355 58.9393C57.798 58.4697 57.2801 58.0996 56.6783 57.8297C56.0765 57.5598 55.425 57.4245 54.7236 57.4245C53.9935 57.4245 53.3276 57.5559 52.7258 57.8186C52.1246 58.082 51.6086 58.4411 51.1797 58.8957C50.7502 59.351 50.4136 59.8876 50.17 60.5067C49.9264 61.1253 49.8053 61.7828 49.8053 62.48C49.8053 63.1766 49.9264 63.8381 50.17 64.4638C50.4136 65.0894 50.7502 65.6371 51.1797 66.1067C51.6093 66.5756 52.1246 66.9457 52.7258 67.2156C53.3269 67.4862 53.9929 67.6208 54.7236 67.6208C55.4394 67.6208 56.0981 67.4862 56.6999 67.2156C57.3004 66.9457 57.8157 66.5795 58.2459 66.1171C58.6755 65.6553 59.0088 65.1187 59.2452 64.5067C59.4803 63.8953 59.5995 63.241 59.5995 62.5438C59.5995 61.8479 59.4809 61.1897 59.2452 60.5711Z" fill="#905BFF"/>
<path d="M77.1566 67.6758C77.4643 67.6257 77.7433 67.5405 77.9948 67.4196C78.2449 67.2992 78.4525 67.1314 78.6175 66.9187C78.7818 66.7054 78.865 66.4283 78.865 66.0862C78.865 65.6166 78.6679 65.2297 78.2744 64.9233C77.8808 64.6176 77.3903 64.3373 76.8036 64.0804C76.2162 63.8248 75.5758 63.5685 74.8811 63.3129C74.1863 63.0573 73.5459 62.7438 72.9592 62.3744C72.3718 62.005 71.8813 61.5425 71.4884 60.9878C71.0942 60.433 70.8978 59.7364 70.8978 58.8974C70.8978 58.2151 71.0444 57.6174 71.3378 57.1055C71.6312 56.593 72.0175 56.1637 72.4975 55.8145C72.9775 55.4665 73.5354 55.2031 74.1732 55.0249C74.8097 54.8473 75.4652 54.7589 76.1383 54.7589C77.1402 54.7589 78.0498 54.8903 78.8663 55.153C79.6822 55.4164 80.4196 55.8177 81.0783 56.3589V59.3455C80.7345 59.004 80.3698 58.7023 79.9834 58.4388C79.5964 58.1761 79.1957 57.9556 78.7805 57.7774C78.3647 57.5998 77.9463 57.4645 77.5239 57.3722C77.1009 57.2798 76.6969 57.233 76.3099 57.233C75.5653 57.233 74.9819 57.3722 74.5595 57.6493C74.1372 57.9263 73.9263 58.286 73.9263 58.7263C73.9263 59.1816 74.1306 59.551 74.5386 59.8359C74.9465 60.1208 75.4514 60.3835 76.0525 60.6248C76.6543 60.8668 77.3059 61.1159 78.0072 61.3715C78.7092 61.6271 79.3535 61.9582 79.9402 62.3633C80.527 62.7685 81.0069 63.2733 81.3795 63.8775C81.7515 64.4824 81.9165 65.2466 81.8733 66.1708C81.8307 66.868 81.6513 67.4722 81.3363 67.9841C81.0213 68.496 80.6134 68.9226 80.1124 69.2641C79.6115 69.6055 79.0313 69.8579 78.3732 70.0211C77.7145 70.1844 77.0132 70.2663 76.2686 70.2663C75.1947 70.2663 74.1496 70.0992 73.1327 69.7649C72.1157 69.4312 71.1996 68.8875 70.3837 68.133V65.2953C70.8277 65.694 71.2894 66.0459 71.7693 66.3516C72.2493 66.6573 72.747 66.9135 73.2623 67.1197C73.7777 67.3259 74.2898 67.482 74.7979 67.5887C75.306 67.6953 75.8037 67.7486 76.2909 67.7486C76.5587 67.75 76.8488 67.7252 77.1566 67.6758Z" fill="#0BFFB7"/>
<path d="M90.5261 70.0112H87.5414V57.6601H83.031V55.0358H95.0372V57.6601H90.5268V70.0112H90.5261Z" fill="#0BFFB7"/>
<path d="M111.392 65.5311C110.983 66.4839 110.426 67.3125 109.716 68.0169C109.007 68.7206 108.166 69.2787 107.193 69.6917C106.219 70.104 105.159 70.3102 104.014 70.3102C102.868 70.3102 101.809 70.1073 100.836 69.7021C99.8613 69.2969 99.0205 68.7421 98.312 68.0377C97.6028 67.3333 97.0481 66.5086 96.6474 65.5629C96.2466 64.6173 96.0463 63.6111 96.0463 62.5444C96.0463 61.4635 96.2466 60.4475 96.6474 59.4941C97.0481 58.5419 97.6067 57.7133 98.3231 57.0089C99.0388 56.3045 99.8835 55.7504 100.857 55.3445C101.831 54.9393 102.898 54.7364 104.057 54.7364C105.202 54.7364 106.258 54.9393 107.225 55.3445C108.191 55.7497 109.029 56.3045 109.737 57.0089C110.446 57.7133 111.001 58.5347 111.402 59.4726C111.803 60.4111 112.004 61.414 112.004 62.4807C112.004 63.561 111.8 64.5782 111.392 65.5311ZM108.557 60.5711C108.32 59.9526 107.984 59.4082 107.547 58.9393C107.11 58.4697 106.592 58.0996 105.99 57.8297C105.389 57.5598 104.736 57.4245 104.035 57.4245C103.305 57.4245 102.639 57.5559 102.038 57.8186C101.436 58.082 100.921 58.4411 100.492 58.8957C100.062 59.351 99.7257 59.8876 99.4821 60.5067C99.2385 61.1253 99.1174 61.7828 99.1174 62.48C99.1174 63.1766 99.2385 63.8381 99.4821 64.4638C99.7257 65.0894 100.062 65.6371 100.492 66.1067C100.921 66.5756 101.437 66.9457 102.038 67.2156C102.639 67.4862 103.305 67.6208 104.035 67.6208C104.751 67.6208 105.41 67.4862 106.011 67.2156C106.613 66.9457 107.128 66.5795 107.557 66.1171C107.987 65.6553 108.32 65.1187 108.556 64.5067C108.792 63.8953 108.91 63.241 108.91 62.5438C108.911 61.8479 108.792 61.1897 108.557 60.5711Z" fill="#0BFFB7"/>
<path d="M126.264 68.6029C125.577 69.1434 124.836 69.5622 124.041 69.8614C123.246 70.16 122.348 70.3095 121.346 70.3095C120.258 70.3095 119.241 70.1138 118.296 69.7229C117.352 69.332 116.531 68.7876 115.837 68.091C115.142 67.3945 114.595 66.573 114.194 65.6273C113.793 64.6816 113.593 63.654 113.593 62.5444C113.593 61.4355 113.789 60.4079 114.184 59.4622C114.577 58.5165 115.125 57.6918 115.827 56.9874C116.528 56.283 117.363 55.7321 118.329 55.3341C119.296 54.9361 120.344 54.7364 121.476 54.7364C122.449 54.7364 123.308 54.8684 124.053 55.1312C124.797 55.3946 125.47 55.7465 126.072 56.1868V59.3224C125.556 58.7676 124.937 58.3129 124.213 57.9572C123.491 57.602 122.621 57.4238 121.604 57.4238C120.859 57.4238 120.182 57.5591 119.574 57.829C118.965 58.099 118.446 58.4619 118.017 58.9165C117.587 59.3718 117.258 59.9084 117.029 60.5275C116.8 61.1461 116.685 61.8043 116.685 62.5009C116.685 63.2117 116.8 63.8764 117.029 64.4956C117.258 65.1142 117.587 65.6553 118.017 66.1171C118.446 66.5795 118.965 66.9424 119.574 67.2052C120.182 67.4679 120.859 67.5993 121.604 67.5993C122.076 67.5993 122.519 67.546 122.935 67.4393C123.35 67.3327 123.748 67.187 124.127 67.0023C124.506 66.8175 124.872 66.5971 125.223 66.3408C125.573 66.0852 125.921 65.801 126.264 65.4875V68.6029Z" fill="#0BFFB7"/>
<path d="M131.483 61.2009L136.938 55.0358H140.568L134.468 61.7557L140.954 70.0112H137.303L131.482 62.5661V70.0112H128.475V55.0358H131.482V61.2009H131.483Z" fill="#0BFFB7"/>
<path d="M145.937 67.4506H154.764V70.0106H141.856V67.7283L151.006 57.5743H142.285V55.0358H155V57.3181L145.937 67.4506Z" fill="#0BFFB7"/>
<path d="M18.7254 76.9192H20.0337C21.2635 76.9192 22.1325 77.7153 22.1325 78.8411C22.1325 79.9669 21.2635 80.7682 20.0337 80.7682H18.7254V76.9192ZM20.0337 80.3708C21.0035 80.3708 21.6865 79.738 21.6865 78.8411C21.6865 77.95 21.0035 77.3166 20.0337 77.3166H19.1648V80.3708H20.0337Z" fill="white"/>
<path d="M29.9215 79.8941H27.7612L27.3723 80.7682H26.8929L28.602 76.9192H29.0814L30.7905 80.7682H30.3111L29.9215 79.8941ZM29.7408 79.4798L28.8437 77.457L27.9413 79.4798H29.7408Z" fill="white"/>
<path d="M35.9335 76.9192H36.3729V80.7682H35.9335V76.9192Z" fill="white"/>
<path d="M44.274 80.3533V80.7682H41.7189V76.9192H42.1583V80.3539H44.274V80.3533Z" fill="white"/>
<path d="M50.6461 79.2001L49.0837 76.9192H49.6311L50.8772 78.7852L52.1352 76.9192H52.6649L51.1084 79.2001V80.7682H50.6454V79.2001H50.6461Z" fill="white"/>
<path d="M63.6967 80.2194L63.973 79.8773C64.3004 80.2025 64.7005 80.4321 65.242 80.4321C65.8399 80.4321 66.1444 80.1069 66.1444 79.7596C66.1444 79.3512 65.7777 79.1879 65.1006 79.0318C64.322 78.8523 63.8316 78.6117 63.8316 77.945C63.8316 77.3284 64.3849 76.8465 65.1288 76.8465C65.7043 76.8465 66.1333 77.0702 66.4882 77.3954L66.2177 77.7375C65.8969 77.4286 65.5131 77.2439 65.1071 77.2439C64.6278 77.2439 64.2775 77.558 64.2775 77.9105C64.2775 78.3086 64.6612 78.4484 65.3213 78.6058C66.0599 78.7788 66.5903 79.0422 66.5903 79.7206C66.5903 80.3313 66.1274 80.8295 65.225 80.8295C64.5872 80.8302 64.0856 80.5999 63.6967 80.2194Z" fill="white"/>
<path d="M72.9683 77.3334H71.6646V76.9185H74.7114V77.3334H73.4077V80.7682H72.9683V77.3334Z" fill="white"/>
<path d="M79.533 78.8464C79.533 77.7648 80.4464 76.8568 81.5184 76.8568C82.5962 76.8568 83.4986 77.7642 83.4986 78.8464C83.4986 79.9274 82.5962 80.8405 81.5184 80.8405C80.4464 80.8405 79.533 79.928 79.533 78.8464ZM83.0526 78.8464C83.0526 77.9892 82.3526 77.2601 81.5184 77.2601C80.6835 77.2601 79.9782 77.9892 79.9782 78.8464C79.9782 79.7088 80.6828 80.4373 81.5184 80.4373C82.3526 80.4373 83.0526 79.7088 83.0526 78.8464Z" fill="white"/>
<path d="M88.6028 78.8464C88.6028 77.7648 89.5163 76.8568 90.5883 76.8568C91.1246 76.8568 91.6203 77.0806 91.9811 77.4455L91.6818 77.7479C91.4002 77.4507 91.0106 77.2601 90.5876 77.2601C89.7527 77.2601 89.0475 77.9892 89.0475 78.8464C89.0475 79.7088 89.7521 80.4373 90.5876 80.4373C91.0106 80.4373 91.3996 80.2461 91.6818 79.9495L91.9811 80.2526C91.6203 80.6109 91.1239 80.8405 90.5883 80.8405C89.5163 80.8405 88.6028 79.928 88.6028 78.8464Z" fill="white"/>
<path d="M97.1812 76.9192H97.6212V79.0479L99.5844 76.9192H100.165L98.5353 78.6785L100.273 80.7682H99.7029L98.2308 78.9751L97.6218 79.6138V80.7682H97.1818V76.9192H97.1812Z" fill="white"/>
<path d="M112.611 77.3334H111.308V76.9185H114.355V77.3334H113.051V80.7682H112.611V77.3334Z" fill="white"/>
<path d="M119.571 76.9192H120.01V80.7682H119.571V76.9192Z" fill="white"/>
<path d="M125.418 76.9192H126.992C127.794 76.9192 128.42 77.4291 128.42 78.1517C128.42 78.8749 127.794 79.3848 126.992 79.3848H125.858V80.7682H125.418V76.9192ZM126.913 78.9699C127.545 78.9699 127.974 78.6674 127.974 78.1517C127.974 77.6365 127.545 77.3341 126.913 77.3341H125.858V78.9705H126.913V78.9699Z" fill="white"/>
<path d="M133.382 80.2194L133.658 79.8773C133.985 80.2025 134.386 80.4321 134.927 80.4321C135.525 80.4321 135.829 80.1069 135.829 79.7596C135.829 79.3512 135.463 79.1879 134.786 79.0318C134.007 78.8523 133.517 78.6117 133.517 77.945C133.517 77.3284 134.07 76.8465 134.814 76.8465C135.389 76.8465 135.818 77.0702 136.173 77.3954L135.903 77.7375C135.582 77.4286 135.198 77.2439 134.792 77.2439C134.313 77.2439 133.963 77.558 133.963 77.9105C133.963 78.3086 134.346 78.4484 135.006 78.6058C135.745 78.7788 136.275 79.0422 136.275 79.7206C136.275 80.3313 135.812 80.8295 134.91 80.8295C134.273 80.8302 133.771 80.5999 133.382 80.2194Z" fill="white"/>
<path opacity="0.5" d="M72.377 28.3929L73.8163 26.9003C74.1516 26.553 74.6761 26.0203 75.3525 25.3705C74.3441 24.4899 73.3285 23.6658 72.3259 22.9146L70.1814 26.6056C70.8827 27.1442 71.6187 27.7438 72.377 28.3929Z" fill="#0BFFB7"/>
<path d="M101.927 36.413C103.072 34.575 103.674 32.4729 103.674 30.2999C103.674 23.8707 98.4076 18.6402 91.9347 18.6402C91.4913 18.6402 91.0572 18.6857 90.6034 18.7794C90.1778 18.8574 89.7331 18.9745 89.2748 19.1287C87.8433 19.5943 86.2069 20.4301 84.4088 21.6138C84.0204 21.8681 83.64 22.129 83.2668 22.3963C81.8969 23.3706 80.4484 24.5387 78.9587 25.8668C78.5907 26.1985 78.241 26.5185 77.9181 26.817C77.0125 27.6652 76.2929 28.3884 75.8489 28.845L73.9735 30.7845C73.5996 31.1272 73.2506 31.4453 72.8871 31.764C70.9849 33.429 66.2531 37.3425 63.3981 37.721C62.7367 37.8329 62.1199 37.7327 61.596 37.6306C59.4685 37.2533 57.6003 35.9604 56.4766 34.0846C56.1453 33.5201 55.8886 32.9197 55.7124 32.2967C55.531 31.6554 55.4387 30.9835 55.4387 30.2993C55.4387 27.0161 57.6271 24.0997 60.7775 23.1566L63.3955 18.6558C63.2442 18.6448 63.0936 18.6396 62.9449 18.6396C56.4714 18.6396 51.2053 23.8701 51.2053 30.2993C51.2053 32.8872 52.0454 35.3366 53.6334 37.3834C53.9457 37.7873 54.2469 38.1314 54.554 38.4371C55.8008 39.7151 57.3528 40.7037 59.0461 41.2995C59.4816 41.4549 59.9203 41.5779 60.3499 41.6657C61.1992 41.8614 62.0694 41.9596 62.9449 41.9596C67.1934 41.9596 72.8976 37.4277 75.9196 34.7259C76.2903 34.3994 76.636 34.0827 76.9483 33.7867C77.6765 33.1103 78.3765 32.4267 79.0307 31.7542L80.9061 29.8141C81.2787 29.472 81.6284 29.1539 81.9911 28.8352C83.0906 27.87 84.1979 26.9718 85.281 26.1653C85.6673 25.8733 86.0648 25.5865 86.4551 25.3205C88.8282 23.6776 90.6715 22.8437 91.934 22.8437H92.0086C92.6877 22.8515 93.3478 22.9452 93.9705 23.1234C97.1903 24.0236 99.4402 26.9744 99.4402 30.2993C99.4402 30.8261 99.3865 31.349 99.2798 31.8557L101.927 36.413Z" fill="#0BFFB7"/>
<path opacity="0.5" d="M82.5025 32.2055L81.0639 33.6929C80.5571 34.2198 80.0515 34.7245 79.529 35.2272C82.5471 37.8549 87.9081 41.9595 91.9353 41.9595C92.5213 41.9595 93.1041 41.9166 93.6738 41.8314L91.2674 37.687C88.5636 37.1596 84.4245 33.8484 82.5025 32.2055Z" fill="#0BFFB7"/>
<path d="M62.1186 34.8777L77.5004 8.40836L83.5477 18.8161C84.8599 17.9985 86.1205 17.3449 87.3038 16.8675L77.5004 0L58.7253 32.306C59.3749 33.6517 60.6478 34.6156 62.1186 34.8777Z" fill="#905BFF"/>
<path d="M53.4951 41.2921L50.0278 47.2608H54.9174L57.0822 43.5385C55.7798 42.9707 54.5762 42.2169 53.4951 41.2921Z" fill="#905BFF"/>
<path d="M91.9346 25.6461C91.6 25.6461 90.5078 26.0077 88.4988 27.3371L100.084 47.2615H104.973L92.4251 25.6728C92.2634 25.6552 92.0997 25.6461 91.9346 25.6461Z" fill="#905BFF"/>
</svg>
