<svg width="16" height="18" viewBox="0 0 16 18" fill="none" xmlns="http://www.w3.org/2000/svg">
<path d="M15 17C15 13.904 11.8626 11.4 8 11.4C4.13737 11.4 1 13.904 1 17M8 9C9.08063 9 10.117 8.57857 10.8811 7.82843C11.6452 7.07828 12.0745 6.06087 12.0745 5C12.0745 3.93913 11.6452 2.92172 10.8811 2.17157C10.117 1.42143 9.08063 1 8 1C6.91937 1 5.88301 1.42143 5.11889 2.17157C4.35477 2.92172 3.92549 3.93913 3.92549 5C3.92549 6.06087 4.35477 7.07828 5.11889 7.82843C5.88301 8.57857 6.91937 9 8 9Z" stroke="white" stroke-width="1.5" stroke-linecap="round" stroke-linejoin="round"/>
</svg>
